HIERARCHY
ROOT Hips
{
 OFFSET 0.000000 0.000000 0.000000
 CHANNELS 6 Xposition Yposition Zposition Yrotation Xrotation Zrotation
 JOINT Chest
 {
  OFFSET 0.000000 9.588913 -0.003946
  CHANNELS 3 Yrotation Xrotation Zrotation
  JOINT Chest2
  {
   OFFSET 0.000000 9.541882 0.008053
   CHANNELS 3 Yrotation Xrotation Zrotation
   JOINT Chest3
   {
    OFFSET 0.000000 9.501360 0.000000
    CHANNELS 3 Yrotation Xrotation Zrotation
    JOINT Chest4
    {
     OFFSET 0.000000 9.491660 0.000000
     CHANNELS 3 Yrotation Xrotation Zrotation
     JOINT Neck
     {
      OFFSET 0.000000 14.331917 0.000000
      CHANNELS 3 Yrotation Xrotation Zrotation
      JOINT Head
      {
       OFFSET 0.000000 8.884799 0.017034
       CHANNELS 3 Yrotation Xrotation Zrotation
       End Site
       {
        OFFSET 0.000000 16.896195 0.008993
       }
      }
     }
     JOINT RightCollar
     {
      OFFSET -2.923010 9.499495 0.000000
      CHANNELS 3 Yrotation Xrotation Zrotation
      JOINT RightShoulder
      {
       OFFSET -13.795216 0.000000 0.000000
       CHANNELS 3 Yrotation Xrotation Zrotation
       JOINT RightElbow
       {
        OFFSET -30.272209 0.000000 0.000000
        CHANNELS 3 Yrotation Xrotation Zrotation
        JOINT RightWrist
        {
         OFFSET -24.478199 0.000000 0.000000
         CHANNELS 3 Yrotation Xrotation Zrotation
         End Site
         {
          OFFSET -18.090752 0.000000 0.000000
         }
        }
       }
      }
     }
     JOINT LeftCollar
     {
      OFFSET 2.923010 9.499495 0.000000
      CHANNELS 3 Yrotation Xrotation Zrotation
      JOINT LeftShoulder
      {
       OFFSET 13.795216 0.000000 0.000000
       CHANNELS 3 Yrotation Xrotation Zrotation
       JOINT LeftElbow
       {
        OFFSET 30.272209 0.000000 0.000000
        CHANNELS 3 Yrotation Xrotation Zrotation
        JOINT LeftWrist
        {
         OFFSET 24.478199 0.000000 0.000000
         CHANNELS 3 Yrotation Xrotation Zrotation
         End Site
         {
          OFFSET 18.090752 0.000000 0.000000
         }
        }
       }
      }
     }
    }
   }
  }
 }
 JOINT RightHip
 {
  OFFSET -7.826875 0.019532 0.001973
  CHANNELS 3 Yrotation Xrotation Zrotation
  JOINT RightKnee
  {
   OFFSET 0.000000 -40.546152 -0.001885
   CHANNELS 3 Yrotation Xrotation Zrotation
   JOINT RightAnkle
   {
    OFFSET 0.000000 -39.417092 -0.003189
    CHANNELS 3 Yrotation Xrotation Zrotation
    JOINT RightToe
    {
     OFFSET 0.000000 -7.579396 17.243563
     CHANNELS 3 Yrotation Xrotation Zrotation
     End Site
     {
      OFFSET 0.000000 -1.500329 6.694466
     }
    }
   }
  }
 }
 JOINT LeftHip
 {
  OFFSET 7.826875 0.019532 0.001973
  CHANNELS 3 Yrotation Xrotation Zrotation
  JOINT LeftKnee
  {
   OFFSET 0.000000 -40.546152 -0.001885
   CHANNELS 3 Yrotation Xrotation Zrotation
   JOINT LeftAnkle
   {
    OFFSET 0.000000 -39.417092 -0.003189
    CHANNELS 3 Yrotation Xrotation Zrotation
    JOINT LeftToe
    {
     OFFSET 0.000000 -7.579396 17.243563
     CHANNELS 3 Yrotation Xrotation Zrotation
     End Site
     {
      OFFSET 0.000000 -1.500329 6.694466
     }
    }
   }
  }
 }
}
MOTION
Frames: 15
Frame Time: 0.008333
10.686559 89.216370 11.331632 57.631052 -5.556296 -10.951229 1.954963 8.606871 -5.774222 1.229949 4.860229 -2.858418 1.500620 6.084323 -3.559823 1.229949 4.860229 -2.858418 -3.802348 22.343466 9.076205 -6.344977 -1.083408 11.010218 12.221201 -2.148200 -16.775764 34.063861 -54.506625 40.928301 50.834655 5.736594 2.171957 -31.605614 11.828493 28.223133 -18.399853 -7.678829 4.094422 -11.524957 -62.324680 -61.627590 -6.372565 -23.447899 -20.670449 -5.713217 -11.334143 17.665832 -11.320453 1.082198 1.645972 -2.513882 7.948458 -0.764145 16.544573 0.123838 22.129968 0.454739 -1.384583 0.024626 -0.637985 2.551764 13.613916 -10.058588 12.436819 0.035709 0.125744 -10.112663 -3.273431 0.128155 1.171499 0.057128
10.737269 89.224337 11.288660 57.607355 -5.566897 -10.992728 1.953987 8.604080 -5.767067 1.228754 4.857974 -2.858384 1.499143 6.081496 -3.559802 1.228754 4.857974 -2.858385 -3.824231 22.341490 9.086283 -6.372407 -1.082725 11.027953 12.237865 -2.127085 -16.776006 34.143895 -54.319301 40.797979 50.634390 6.086487 2.377282 -31.835581 11.803948 27.873622 -18.397004 -7.658854 4.089090 -11.619063 -62.309078 -61.570505 -6.364439 -23.324478 -20.694744 -5.691425 -11.326068 17.645938 -11.303047 1.077502 1.633207 -2.511255 7.956852 -0.756015 16.577951 0.231866 22.202117 0.451327 -1.377911 0.036400 -0.638479 2.581527 13.607386 -10.049642 12.438035 0.039753 0.140405 -10.114402 -3.225073 0.127392 1.165250 0.053167
10.786927 89.231934 11.246706 57.582980 -5.578600 -11.030591 1.951056 8.602151 -5.762298 1.226691 4.855953 -2.858416 1.496576 6.078954 -3.559874 1.226690 4.855953 -2.858416 -3.841907 22.338709 9.094897 -6.394692 -1.083536 11.042822 12.254991 -2.102731 -16.777521 34.168906 -54.207447 40.758259 50.434394 6.633983 2.542906 -32.003405 11.650924 27.138364 -18.391081 -7.641657 4.082986 -11.713687 -62.290555 -61.510450 -6.360736 -23.201296 -20.718903 -5.673289 -11.318047 17.631354 -11.279376 1.069728 1.616993 -2.512585 7.971369 -0.748552 16.618973 0.335295 22.269936 0.449372 -1.371742 0.048449 -0.635633 2.606982 13.597225 -10.040221 12.447800 0.044428 0.151370 -10.118285 -3.174835 0.126492 1.157445 0.048069
10.835047 89.239138 11.205646 57.557936 -5.589798 -11.065707 1.945973 8.601065 -5.759435 1.223660 4.854240 -2.858940 1.492790 6.076792 -3.560573 1.223660 4.854240 -2.858940 -3.854466 22.336334 9.103918 -6.411282 -1.084234 11.056796 12.271878 -2.075985 -16.777601 34.143862 -54.165674 40.793890 50.242102 7.392297 2.686825 -32.066950 11.342075 25.873831 -18.379950 -7.628202 4.078786 -11.797832 -62.270967 -61.457844 -6.359285 -23.081987 -20.746600 -5.659416 -11.307068 17.624421 -11.252526 1.056620 1.598291 -2.518131 7.992971 -0.742084 16.671375 0.434344 22.333732 0.448792 -1.366893 0.060609 -0.630398 2.626793 13.585891 -10.034197 12.464865 0.046870 0.161726 -10.124110 -3.123623 0.126377 1.148859 0.043302
10.880768 89.245997 11.165744 57.531195 -5.599143 -11.102346 1.940337 8.599997 -5.755855 1.220388 4.852706 -2.859806 1.488695 6.074852 -3.561703 1.220387 4.852706 -2.859806 -3.862311 22.334756 9.115417 -6.423169 -1.084064 11.072425 12.286304 -2.045654 -16.771922 34.072691 -54.177866 40.890497 50.054803 8.403772 2.800157 -31.995634 10.835373 23.970651 -18.367154 -7.615988 4.077482 -11.876421 -62.248523 -61.412613 -6.363283 -22.975214 -20.772418 -5.649051 -11.296126 17.620241 -11.222565 1.039751 1.582690 -2.524044 8.017425 -0.734087 16.725259 0.532124 22.389426 0.448150 -1.361778 0.074471 -0.625015 2.640197 13.578517 -10.032227 12.488925 0.046547 0.174116 -10.133200 -3.073437 0.127100 1.140782 0.039678
10.924002 89.252522 11.127298 57.500680 -5.610094 -11.142524 1.936641 8.599277 -5.750674 1.218150 4.851952 -2.860300 1.485895 6.073893 -3.562353 1.218150 4.851952 -2.860301 -3.866180 22.333991 9.129918 -6.431325 -1.082878 11.090525 12.299870 -2.013599 -16.756435 33.962959 -54.214831 41.031957 49.851168 9.750236 2.858567 -31.730849 10.085648 21.372798 -18.357663 -7.603251 4.076825 -11.954289 -62.223530 -61.370989 -6.372894 -22.886542 -20.793358 -5.642410 -11.288859 17.612554 -11.185230 1.024762 1.573460 -2.525737 8.041171 -0.723118 16.764415 0.630191 22.437920 0.445670 -1.353929 0.087833 -0.621131 2.651812 13.576543 -10.029485 12.520031 0.045584 0.188328 -10.146519 -3.026805 0.127903 1.133533 0.037840
10.965131 89.258527 11.089872 57.466899 -5.625721 -11.183313 1.935009 8.600558 -5.746230 1.217165 4.852760 -2.860250 1.484658 6.074896 -3.562302 1.217165 4.852760 -2.860250 -3.867302 22.332769 9.147035 -6.437045 -1.082151 11.110958 12.316989 -1.982079 -16.731680 33.831197 -54.254610 41.190713 49.579976 11.501745 2.846378 -31.176359 9.071495 18.052062 -18.353044 -7.590981 4.075614 -12.025261 -62.201642 -61.336790 -6.383366 -22.813225 -20.812397 -5.640000 -11.288182 17.600855 -11.139865 1.012606 1.566999 -2.522040 8.066557 -0.711643 16.789038 0.725469 22.486254 0.442377 -1.343381 0.097015 -0.623267 2.666138 13.575265 -10.024163 12.557825 0.045538 0.207639 -10.163248 -2.984924 0.128284 1.126694 0.037766
11.004038 89.263755 11.052749 57.430032 -5.645395 -11.221870 1.934959 8.604293 -5.743291 1.217084 4.855243 -2.860227 1.484539 6.077998 -3.562269 1.217084 4.855243 -2.860227 -3.866135 22.328961 9.166463 -6.440767 -1.084444 11.133459 12.337478 -1.952154 -16.702247 33.692558 -54.287390 41.345771 49.188429 13.661477 2.746738 -30.259838 7.810033 14.001133 -18.352298 -7.579446 4.074097 -12.084400 -62.189566 -61.313239 -6.388547 -22.748704 -20.831600 -5.644247 -11.293538 17.588233 -11.087090 1.000653 1.559927 -2.517316 8.095459 -0.701200 16.805451 0.815185 22.538783 0.440158 -1.329978 0.100550 -0.631410 2.681741 13.570934 -10.014227 12.602962 0.047577 0.230094 -10.182890 -2.947640 0.128806 1.119956 0.039057
11.040352 89.268087 11.015800 57.386939 -5.669234 -11.258696 1.938500 8.609943 -5.741045 1.218972 4.858820 -2.860233 1.486874 6.082484 -3.562243 1.218972 4.858820 -2.860232 -3.863210 22.322311 9.188734 -6.443231 -1.089954 11.158796 12.355887 -1.923188 -16.671978 33.561041 -54.312935 41.494751 48.629890 16.168090 2.510198 -28.947917 6.347731 9.275523 -18.357567 -7.565710 4.071372 -12.138642 -62.186473 -61.294742 -6.388037 -22.691789 -20.846503 -5.658394 -11.299635 17.576394 -11.029626 0.988669 1.552130 -2.517930 8.126091 -0.692865 16.828385 0.900156 22.598270 0.439082 -1.314818 0.098133 -0.639490 2.695086 13.565505 -9.996724 12.659661 0.050026 0.250117 -10.207143 -2.913977 0.129649 1.112707 0.041911
11.073524 89.271453 10.978958 57.337374 -5.695221 -11.295147 1.945406 8.616955 -5.739118 1.222916 4.862812 -2.859856 1.491784 6.087502 -3.561711 1.222916 4.862811 -2.859855 -3.858611 22.312652 9.214164 -6.444616 -1.098833 11.187366 12.370855 -1.896004 -16.644560 33.450761 -54.342079 41.645041 47.853900 18.934216 2.058145 -27.223095 4.761603 4.020140 -18.368805 -7.550139 4.065689 -12.191999 -62.190073 -61.279447 -6.384565 -22.638440 -20.852987 -5.680939 -11.304091 17.567306 -10.977220 0.976776 1.544765 -2.524977 8.154963 -0.685856 16.865319 0.982093 22.665081 0.438063 -1.297583 0.089944 -0.644936 2.701093 13.561714 -9.974205 12.731560 0.049914 0.267397 -10.237400 -2.882138 0.130182 1.104804 0.045692
11.103479 89.273866 10.942316 57.287494 -5.722122 -11.332131 1.952447 8.626172 -5.736450 1.227082 4.868083 -2.858884 1.496970 6.094120 -3.560428 1.227082 4.868083 -2.858884 -3.851217 22.298604 9.242858 -6.443677 -1.112823 11.218971 12.382795 -1.874221 -16.623198 33.378891 -54.387429 41.799187 46.826630 21.856256 1.300118 -25.119098 3.199241 -1.521954 -18.383298 -7.537607 4.058534 -12.237616 -62.202037 -61.271487 -6.379071 -22.581012 -20.854443 -5.707404 -11.306573 17.564820 -10.942338 0.968784 1.540320 -2.536633 8.178470 -0.679997 16.905829 1.061384 22.738502 0.435246 -1.275383 0.075842 -0.651259 2.700423 13.559774 -9.951925 12.815184 0.047858 0.284179 -10.272652 -2.850752 0.130345 1.097298 0.048543
11.130414 89.275478 10.906302 57.239459 -5.751189 -11.370699 1.959610 8.639731 -5.732436 1.231358 4.876004 -2.857145 1.502285 6.104048 -3.558179 1.231358 4.876004 -2.857145 -3.842213 22.279269 9.275818 -6.442019 -1.132778 11.255106 12.390398 -1.861020 -16.610668 33.369005 -54.452579 41.946781 45.527528 24.793479 0.158926 -22.743292 1.843068 -7.036138 -18.401678 -7.532184 4.053069 -12.278371 -62.220530 -61.266448 -6.373802 -22.521510 -20.854376 -5.738287 -11.305922 17.571160 -10.926215 0.967785 1.540006 -2.549554 8.194741 -0.676036 16.946790 1.138806 22.818508 0.431043 -1.249603 0.057588 -0.660520 2.697284 13.559388 -9.932679 12.906522 0.047012 0.303363 -10.311843 -2.821902 0.130712 1.090738 0.050513
11.154045 89.276425 10.870905 57.191099 -5.779906 -11.410665 1.968509 8.657572 -5.727693 1.236526 4.886469 -2.854955 1.508703 6.117161 -3.555348 1.236526 4.886469 -2.854955 -3.834591 22.254990 9.313742 -6.443226 -1.157937 11.297419 12.394554 -1.855986 -16.608463 33.450041 -54.527885 42.063474 43.958150 27.526697 -1.370864 -20.236107 0.878155 -12.237995 -18.424722 -7.535477 4.052253 -12.322300 -62.240812 -61.259245 -6.373045 -22.468177 -20.852722 -5.774930 -11.301575 17.585307 -10.923368 0.969281 1.543556 -2.554623 8.204885 -0.673259 16.985729 1.214669 22.902948 0.426823 -1.223310 0.039076 -0.670383 2.689043 13.560756 -9.922286 13.004676 0.046918 0.329333 -10.354082 -2.797161 0.131329 1.084757 0.052562
11.174433 89.276885 10.836092 57.142434 -5.806504 -11.450870 1.979789 8.679009 -5.722389 1.243027 4.899127 -2.852475 1.516776 6.133024 -3.552130 1.243027 4.899127 -2.852474 -3.831656 22.226598 9.355971 -6.450886 -1.187097 11.346055 12.394910 -1.853278 -16.615391 33.633681 -54.603417 42.130217 42.204573 29.764082 -3.184498 -17.778584 0.432018 -16.933831 -18.454509 -7.546715 4.056738 -12.371466 -62.262394 -61.250836 -6.377643 -22.424611 -20.848362 -5.816034 -11.295949 17.602356 -10.930726 0.969943 1.549597 -2.548001 8.210733 -0.671764 17.023581 1.288177 22.988059 0.423144 -1.198290 0.024314 -0.678350 2.674825 13.563996 -9.920994 13.106102 0.045794 0.359853 -10.397325 -2.773604 0.131597 1.079343 0.053418
11.192056 89.277183 10.802417 57.093102 -5.833136 -11.492071 1.994411 8.704988 -5.715294 1.251445 4.914127 -2.849358 1.527241 6.151827 -3.548085 1.251445 4.914127 -2.849357 -3.836083 22.194860 9.401388 -6.467752 -1.219240 11.400446 12.389785 -1.846526 -16.631698 33.891807 -54.687149 42.158032 40.420212 31.262261 -5.116153 -15.515260 0.398091 -20.970140 -18.490079 -7.563902 4.062917 -12.433666 -62.288061 -61.235929 -6.384453 -22.389038 -20.843069 -5.862222 -11.294821 17.619170 -10.944110 0.972288 1.558401 -2.536402 8.212791 -0.670178 17.061675 1.360065 23.069273 0.419981 -1.174460 0.014694 -0.682117 2.659091 13.571255 -9.920239 13.206235 0.043762 0.386053 -10.440063 -2.748954 0.131779 1.074954 0.052388
